<mxfile host="app.diagrams.net" modified="2021-02-16T16:12:36.727Z" agent="5.0 (Windows NT 10.0; Win64; x64) AppleWebKit/537.36 (KHTML, like Gecko) Chrome/88.0.4324.150 Safari/537.36" etag="QWlJ3QJVtdErq_iKZkqR" version="14.2.9" type="github">
  <diagram id="lFJEltrvhaYtgHILa2qo" name="Page-1">
    <mxGraphModel dx="1951" dy="1880" grid="1" gridSize="10" guides="1" tooltips="1" connect="1" arrows="1" fold="1" page="1" pageScale="1" pageWidth="1169" pageHeight="1654" math="0" shadow="0">
      <root>
        <mxCell id="0" />
        <mxCell id="1" parent="0" />
        <mxCell id="IBGktmHR25dJkQ-fJBua-20" value="" style="rounded=0;whiteSpace=wrap;html=1;fillColor=#d5e8d4;strokeColor=#82b366;" vertex="1" parent="1">
          <mxGeometry x="-900" y="148.66" width="720" height="591.34" as="geometry" />
        </mxCell>
        <mxCell id="IBGktmHR25dJkQ-fJBua-21" value="&lt;h1 style=&quot;font-size: 14px&quot;&gt;&lt;br&gt;&lt;/h1&gt;" style="whiteSpace=wrap;html=1;align=right;fillColor=#f5f5f5;strokeColor=#666666;fontColor=#333333;" vertex="1" parent="1">
          <mxGeometry x="-880" y="587.693246541904" width="510" height="172.95158665581775" as="geometry" />
        </mxCell>
        <mxCell id="IBGktmHR25dJkQ-fJBua-75" value="PYTHON" style="rhombus;whiteSpace=wrap;html=1;shadow=0;fillColor=#f8cecc;strokeColor=#b85450;" vertex="1" parent="1">
          <mxGeometry x="-890" y="450" width="530" height="90" as="geometry" />
        </mxCell>
        <mxCell id="IBGktmHR25dJkQ-fJBua-19" value="" style="rounded=0;whiteSpace=wrap;html=1;shadow=0;fillColor=#fff2cc;strokeColor=#d6b656;" vertex="1" parent="1">
          <mxGeometry x="-900" y="740" width="720" height="180" as="geometry" />
        </mxCell>
        <mxCell id="IBGktmHR25dJkQ-fJBua-17" value="" style="rounded=0;whiteSpace=wrap;html=1;shadow=0;fillColor=#fff2cc;strokeColor=#d6b656;" vertex="1" parent="1">
          <mxGeometry x="190" y="740" width="790" height="150" as="geometry" />
        </mxCell>
        <mxCell id="IBGktmHR25dJkQ-fJBua-12" value="" style="rounded=0;whiteSpace=wrap;html=1;fillColor=#d5e8d4;strokeColor=#82b366;" vertex="1" parent="1">
          <mxGeometry x="190" y="150" width="790" height="590" as="geometry" />
        </mxCell>
        <mxCell id="TO9IgFeLMEn5EproTfnc-32" value="&lt;h1 style=&quot;font-size: 14px&quot;&gt;&lt;br&gt;&lt;/h1&gt;" style="whiteSpace=wrap;html=1;align=right;fillColor=#f5f5f5;strokeColor=#666666;fontColor=#333333;" parent="1" vertex="1">
          <mxGeometry x="270" y="540" width="510" height="187.5" as="geometry" />
        </mxCell>
        <mxCell id="TO9IgFeLMEn5EproTfnc-30" value="&lt;h1 style=&quot;font-size: 14px&quot;&gt;&lt;br&gt;&lt;/h1&gt;" style="whiteSpace=wrap;html=1;align=right;fillColor=#dae8fc;strokeColor=#6c8ebf;" parent="1" vertex="1">
          <mxGeometry x="270" y="345" width="510" height="135" as="geometry" />
        </mxCell>
        <mxCell id="TO9IgFeLMEn5EproTfnc-10" value="&lt;h1 style=&quot;font-size: 14px&quot;&gt;&lt;br&gt;&lt;/h1&gt;" style="whiteSpace=wrap;html=1;align=right;fillColor=#dae8fc;strokeColor=#6c8ebf;" parent="1" vertex="1">
          <mxGeometry x="270" y="160" width="510" height="170" as="geometry" />
        </mxCell>
        <mxCell id="TO9IgFeLMEn5EproTfnc-3" style="edgeStyle=orthogonalEdgeStyle;orthogonalLoop=1;jettySize=auto;html=1;entryX=0.5;entryY=0;entryDx=0;entryDy=0;rounded=0;" parent="1" source="TO9IgFeLMEn5EproTfnc-1" target="TO9IgFeLMEn5EproTfnc-2" edge="1">
          <mxGeometry relative="1" as="geometry">
            <Array as="points">
              <mxPoint x="510" y="190" />
              <mxPoint x="370" y="190" />
            </Array>
          </mxGeometry>
        </mxCell>
        <mxCell id="TO9IgFeLMEn5EproTfnc-6" style="edgeStyle=orthogonalEdgeStyle;orthogonalLoop=1;jettySize=auto;html=1;" parent="1" source="TO9IgFeLMEn5EproTfnc-1" target="TO9IgFeLMEn5EproTfnc-4" edge="1">
          <mxGeometry relative="1" as="geometry" />
        </mxCell>
        <mxCell id="TO9IgFeLMEn5EproTfnc-7" style="edgeStyle=orthogonalEdgeStyle;orthogonalLoop=1;jettySize=auto;html=1;rounded=0;" parent="1" source="TO9IgFeLMEn5EproTfnc-1" target="TO9IgFeLMEn5EproTfnc-5" edge="1">
          <mxGeometry relative="1" as="geometry">
            <Array as="points">
              <mxPoint x="510" y="190" />
              <mxPoint x="660" y="190" />
            </Array>
          </mxGeometry>
        </mxCell>
        <mxCell id="TO9IgFeLMEn5EproTfnc-1" value="ЕИРЦ" style="whiteSpace=wrap;html=1;" parent="1" vertex="1">
          <mxGeometry x="450" y="80" width="120" height="60" as="geometry" />
        </mxCell>
        <mxCell id="TO9IgFeLMEn5EproTfnc-15" style="edgeStyle=orthogonalEdgeStyle;orthogonalLoop=1;jettySize=auto;html=1;entryX=0.5;entryY=0;entryDx=0;entryDy=0;" parent="1" source="TO9IgFeLMEn5EproTfnc-2" target="TO9IgFeLMEn5EproTfnc-12" edge="1">
          <mxGeometry relative="1" as="geometry" />
        </mxCell>
        <mxCell id="TO9IgFeLMEn5EproTfnc-2" value="dolg" style="whiteSpace=wrap;html=1;" parent="1" vertex="1">
          <mxGeometry x="310" y="240" width="120" height="60" as="geometry" />
        </mxCell>
        <mxCell id="TO9IgFeLMEn5EproTfnc-16" style="edgeStyle=orthogonalEdgeStyle;orthogonalLoop=1;jettySize=auto;html=1;" parent="1" source="TO9IgFeLMEn5EproTfnc-4" target="TO9IgFeLMEn5EproTfnc-13" edge="1">
          <mxGeometry relative="1" as="geometry" />
        </mxCell>
        <mxCell id="TO9IgFeLMEn5EproTfnc-4" value="address" style="whiteSpace=wrap;html=1;" parent="1" vertex="1">
          <mxGeometry x="450" y="240" width="120" height="60" as="geometry" />
        </mxCell>
        <mxCell id="TO9IgFeLMEn5EproTfnc-17" style="edgeStyle=orthogonalEdgeStyle;orthogonalLoop=1;jettySize=auto;html=1;entryX=0.5;entryY=0;entryDx=0;entryDy=0;" parent="1" source="TO9IgFeLMEn5EproTfnc-5" target="TO9IgFeLMEn5EproTfnc-14" edge="1">
          <mxGeometry relative="1" as="geometry" />
        </mxCell>
        <mxCell id="TO9IgFeLMEn5EproTfnc-5" value="cross" style="whiteSpace=wrap;html=1;" parent="1" vertex="1">
          <mxGeometry x="600" y="240" width="120" height="60" as="geometry" />
        </mxCell>
        <mxCell id="TO9IgFeLMEn5EproTfnc-23" style="edgeStyle=orthogonalEdgeStyle;orthogonalLoop=1;jettySize=auto;html=1;entryX=0.25;entryY=0;entryDx=0;entryDy=0;" parent="1" source="TO9IgFeLMEn5EproTfnc-12" target="TO9IgFeLMEn5EproTfnc-20" edge="1">
          <mxGeometry relative="1" as="geometry">
            <mxPoint x="400" y="520" as="targetPoint" />
            <Array as="points">
              <mxPoint x="370" y="500" />
              <mxPoint x="370" y="500" />
            </Array>
          </mxGeometry>
        </mxCell>
        <mxCell id="TO9IgFeLMEn5EproTfnc-12" value="dolg" style="whiteSpace=wrap;html=1;" parent="1" vertex="1">
          <mxGeometry x="310" y="400" width="120" height="60" as="geometry" />
        </mxCell>
        <mxCell id="TO9IgFeLMEn5EproTfnc-22" style="edgeStyle=orthogonalEdgeStyle;orthogonalLoop=1;jettySize=auto;html=1;entryX=0.75;entryY=0;entryDx=0;entryDy=0;rounded=0;" parent="1" source="TO9IgFeLMEn5EproTfnc-13" target="TO9IgFeLMEn5EproTfnc-20" edge="1">
          <mxGeometry relative="1" as="geometry">
            <mxPoint x="430" y="490" as="targetPoint" />
            <Array as="points">
              <mxPoint x="510" y="500" />
              <mxPoint x="430" y="500" />
            </Array>
          </mxGeometry>
        </mxCell>
        <mxCell id="TO9IgFeLMEn5EproTfnc-13" value="address" style="whiteSpace=wrap;html=1;" parent="1" vertex="1">
          <mxGeometry x="450" y="400" width="120" height="60" as="geometry" />
        </mxCell>
        <mxCell id="TO9IgFeLMEn5EproTfnc-26" style="edgeStyle=orthogonalEdgeStyle;orthogonalLoop=1;jettySize=auto;html=1;entryX=0.5;entryY=0;entryDx=0;entryDy=0;strokeColor=none;rounded=0;" parent="1" source="TO9IgFeLMEn5EproTfnc-14" target="TO9IgFeLMEn5EproTfnc-21" edge="1">
          <mxGeometry relative="1" as="geometry">
            <Array as="points">
              <mxPoint x="660" y="480" />
              <mxPoint x="640" y="480" />
            </Array>
          </mxGeometry>
        </mxCell>
        <mxCell id="TO9IgFeLMEn5EproTfnc-14" value="cross" style="whiteSpace=wrap;html=1;" parent="1" vertex="1">
          <mxGeometry x="600" y="400" width="120" height="60" as="geometry" />
        </mxCell>
        <mxCell id="TO9IgFeLMEn5EproTfnc-18" value="&lt;h2&gt;&lt;font face=&quot;Comic Sans MS&quot;&gt;WITH HISTORY&lt;/font&gt;&lt;/h2&gt;" style="text;html=1;strokeColor=none;fillColor=none;align=center;verticalAlign=middle;whiteSpace=wrap;" parent="1" vertex="1">
          <mxGeometry x="690" y="160" width="90" height="50" as="geometry" />
        </mxCell>
        <mxCell id="TO9IgFeLMEn5EproTfnc-38" style="edgeStyle=orthogonalEdgeStyle;orthogonalLoop=1;jettySize=auto;html=1;entryX=0.5;entryY=0;entryDx=0;entryDy=0;" parent="1" source="TO9IgFeLMEn5EproTfnc-20" target="TO9IgFeLMEn5EproTfnc-49" edge="1">
          <mxGeometry relative="1" as="geometry">
            <mxPoint x="490" y="803.0102040816328" as="targetPoint" />
            <Array as="points">
              <mxPoint x="400" y="767.5" />
              <mxPoint x="400" y="767.5" />
            </Array>
          </mxGeometry>
        </mxCell>
        <mxCell id="TO9IgFeLMEn5EproTfnc-20" value="maugli_dolg" style="whiteSpace=wrap;html=1;" parent="1" vertex="1">
          <mxGeometry x="340" y="567.5" width="120" height="60" as="geometry" />
        </mxCell>
        <mxCell id="TO9IgFeLMEn5EproTfnc-28" style="edgeStyle=orthogonalEdgeStyle;orthogonalLoop=1;jettySize=auto;html=1;entryX=0.5;entryY=0;entryDx=0;entryDy=0;" parent="1" source="TO9IgFeLMEn5EproTfnc-21" target="TO9IgFeLMEn5EproTfnc-27" edge="1">
          <mxGeometry relative="1" as="geometry" />
        </mxCell>
        <mxCell id="TO9IgFeLMEn5EproTfnc-21" value="maugli_daeth" style="whiteSpace=wrap;html=1;" parent="1" vertex="1">
          <mxGeometry x="580" y="567.5" width="120" height="60" as="geometry" />
        </mxCell>
        <mxCell id="TO9IgFeLMEn5EproTfnc-37" style="edgeStyle=orthogonalEdgeStyle;orthogonalLoop=1;jettySize=auto;html=1;exitX=0.5;exitY=1;exitDx=0;exitDy=0;entryX=0.5;entryY=0;entryDx=0;entryDy=0;" parent="1" source="TO9IgFeLMEn5EproTfnc-27" target="TO9IgFeLMEn5EproTfnc-46" edge="1">
          <mxGeometry relative="1" as="geometry">
            <Array as="points">
              <mxPoint x="640" y="767.5" />
              <mxPoint x="640" y="767.5" />
            </Array>
          </mxGeometry>
        </mxCell>
        <mxCell id="TO9IgFeLMEn5EproTfnc-27" value="maugli_daeth_v" style="whiteSpace=wrap;html=1;" parent="1" vertex="1">
          <mxGeometry x="580" y="647.5" width="120" height="60" as="geometry" />
        </mxCell>
        <mxCell id="TO9IgFeLMEn5EproTfnc-33" style="edgeStyle=orthogonalEdgeStyle;orthogonalLoop=1;jettySize=auto;html=1;entryX=0.907;entryY=0.008;entryDx=0;entryDy=0;entryPerimeter=0;rounded=0;" parent="1" source="TO9IgFeLMEn5EproTfnc-29" target="TO9IgFeLMEn5EproTfnc-32" edge="1">
          <mxGeometry relative="1" as="geometry">
            <Array as="points">
              <mxPoint x="850" y="500" />
              <mxPoint x="733" y="500" />
            </Array>
          </mxGeometry>
        </mxCell>
        <mxCell id="TO9IgFeLMEn5EproTfnc-29" value="&lt;h1&gt;virus&lt;/h1&gt;" style="whiteSpace=wrap;html=1;" parent="1" vertex="1">
          <mxGeometry x="790" y="345" width="130" height="115" as="geometry" />
        </mxCell>
        <mxCell id="TO9IgFeLMEn5EproTfnc-43" style="edgeStyle=orthogonalEdgeStyle;orthogonalLoop=1;jettySize=auto;html=1;exitX=0.5;exitY=1;exitDx=0;exitDy=0;entryX=0.5;entryY=0;entryDx=0;entryDy=0;" parent="1" source="TO9IgFeLMEn5EproTfnc-49" target="TO9IgFeLMEn5EproTfnc-41" edge="1">
          <mxGeometry relative="1" as="geometry">
            <mxPoint x="338.75" y="846.25" as="sourcePoint" />
            <Array as="points">
              <mxPoint x="400" y="907.5" />
              <mxPoint x="400" y="907.5" />
            </Array>
          </mxGeometry>
        </mxCell>
        <mxCell id="TO9IgFeLMEn5EproTfnc-41" value="dolg.json" style="whiteSpace=wrap;html=1;" parent="1" vertex="1">
          <mxGeometry x="340" y="917.5" width="120" height="60" as="geometry" />
        </mxCell>
        <mxCell id="TO9IgFeLMEn5EproTfnc-42" value="death.json" style="whiteSpace=wrap;html=1;" parent="1" vertex="1">
          <mxGeometry x="580" y="917.5" width="120" height="60" as="geometry" />
        </mxCell>
        <mxCell id="TO9IgFeLMEn5EproTfnc-48" style="edgeStyle=orthogonalEdgeStyle;orthogonalLoop=1;jettySize=auto;html=1;entryX=0.5;entryY=0;entryDx=0;entryDy=0;" parent="1" source="TO9IgFeLMEn5EproTfnc-46" target="TO9IgFeLMEn5EproTfnc-42" edge="1">
          <mxGeometry relative="1" as="geometry">
            <mxPoint x="660" y="907.5" as="targetPoint" />
          </mxGeometry>
        </mxCell>
        <mxCell id="TO9IgFeLMEn5EproTfnc-46" value="python script" style="rhombus;whiteSpace=wrap;html=1;" parent="1" vertex="1">
          <mxGeometry x="550" y="787.5" width="180" height="76" as="geometry" />
        </mxCell>
        <mxCell id="TO9IgFeLMEn5EproTfnc-49" value="python script" style="rhombus;whiteSpace=wrap;html=1;" parent="1" vertex="1">
          <mxGeometry x="310" y="787.5" width="180" height="76" as="geometry" />
        </mxCell>
        <mxCell id="TO9IgFeLMEn5EproTfnc-25" style="edgeStyle=orthogonalEdgeStyle;orthogonalLoop=1;jettySize=auto;html=1;rounded=0;" parent="1" source="TO9IgFeLMEn5EproTfnc-13" target="TO9IgFeLMEn5EproTfnc-21" edge="1">
          <mxGeometry x="430" y="480" as="geometry">
            <Array as="points">
              <mxPoint x="510" y="500" />
              <mxPoint x="640" y="500" />
            </Array>
          </mxGeometry>
        </mxCell>
        <mxCell id="TO9IgFeLMEn5EproTfnc-24" style="edgeStyle=orthogonalEdgeStyle;orthogonalLoop=1;jettySize=auto;html=1;entryX=0.75;entryY=0;entryDx=0;entryDy=0;rounded=0;" parent="1" source="TO9IgFeLMEn5EproTfnc-14" target="TO9IgFeLMEn5EproTfnc-20" edge="1">
          <mxGeometry x="430" y="480" as="geometry">
            <mxPoint x="400" y="520" as="targetPoint" />
            <Array as="points">
              <mxPoint x="660" y="500" />
              <mxPoint x="430" y="500" />
            </Array>
          </mxGeometry>
        </mxCell>
        <mxCell id="IBGktmHR25dJkQ-fJBua-14" value="&lt;h1&gt;VERTICA&lt;/h1&gt;" style="text;html=1;strokeColor=none;fillColor=none;align=center;verticalAlign=middle;whiteSpace=wrap;rounded=0;" vertex="1" parent="1">
          <mxGeometry x="850" y="160" width="120" height="20" as="geometry" />
        </mxCell>
        <mxCell id="IBGktmHR25dJkQ-fJBua-16" value="&lt;h2&gt;&lt;font face=&quot;Comic Sans MS&quot;&gt;LAST UPDATE&lt;/font&gt;&lt;/h2&gt;" style="text;html=1;strokeColor=none;fillColor=none;align=center;verticalAlign=middle;whiteSpace=wrap;shadow=0;" vertex="1" parent="1">
          <mxGeometry x="680" y="345" width="100" height="45" as="geometry" />
        </mxCell>
        <mxCell id="IBGktmHR25dJkQ-fJBua-18" value="&lt;h1&gt;PYTHON&lt;/h1&gt;" style="text;html=1;strokeColor=none;fillColor=none;align=center;verticalAlign=middle;whiteSpace=wrap;rounded=0;" vertex="1" parent="1">
          <mxGeometry x="850" y="750" width="120" height="20" as="geometry" />
        </mxCell>
        <mxCell id="IBGktmHR25dJkQ-fJBua-22" value="&lt;h1 style=&quot;font-size: 14px&quot;&gt;&lt;br&gt;&lt;/h1&gt;" style="whiteSpace=wrap;html=1;align=right;fillColor=#dae8fc;strokeColor=#6c8ebf;" vertex="1" parent="1">
          <mxGeometry x="-889" y="180" width="510" height="180" as="geometry" />
        </mxCell>
        <mxCell id="IBGktmHR25dJkQ-fJBua-60" style="edgeStyle=orthogonalEdgeStyle;rounded=0;orthogonalLoop=1;jettySize=auto;html=1;" edge="1" parent="1" source="IBGktmHR25dJkQ-fJBua-27" target="IBGktmHR25dJkQ-fJBua-37">
          <mxGeometry relative="1" as="geometry" />
        </mxCell>
        <mxCell id="IBGktmHR25dJkQ-fJBua-61" style="edgeStyle=orthogonalEdgeStyle;rounded=0;orthogonalLoop=1;jettySize=auto;html=1;entryX=0.5;entryY=0;entryDx=0;entryDy=0;" edge="1" parent="1" source="IBGktmHR25dJkQ-fJBua-27" target="IBGktmHR25dJkQ-fJBua-35">
          <mxGeometry relative="1" as="geometry">
            <Array as="points">
              <mxPoint x="-649" y="250" />
              <mxPoint x="-789" y="250" />
            </Array>
          </mxGeometry>
        </mxCell>
        <mxCell id="IBGktmHR25dJkQ-fJBua-62" style="edgeStyle=orthogonalEdgeStyle;rounded=0;orthogonalLoop=1;jettySize=auto;html=1;" edge="1" parent="1" source="IBGktmHR25dJkQ-fJBua-27" target="IBGktmHR25dJkQ-fJBua-39">
          <mxGeometry relative="1" as="geometry">
            <Array as="points">
              <mxPoint x="-649" y="250" />
              <mxPoint x="-499" y="250" />
            </Array>
          </mxGeometry>
        </mxCell>
        <mxCell id="IBGktmHR25dJkQ-fJBua-27" value="ЕИРЦ" style="whiteSpace=wrap;html=1;" vertex="1" parent="1">
          <mxGeometry x="-709" y="80" width="120" height="60" as="geometry" />
        </mxCell>
        <mxCell id="IBGktmHR25dJkQ-fJBua-107" style="edgeStyle=orthogonalEdgeStyle;rounded=0;orthogonalLoop=1;jettySize=auto;html=1;strokeColor=#000000;dashed=1;dashPattern=1 1;" edge="1" parent="1" source="IBGktmHR25dJkQ-fJBua-35" target="IBGktmHR25dJkQ-fJBua-70">
          <mxGeometry relative="1" as="geometry">
            <Array as="points">
              <mxPoint x="-789" y="395" />
              <mxPoint x="-760" y="395" />
            </Array>
          </mxGeometry>
        </mxCell>
        <mxCell id="IBGktmHR25dJkQ-fJBua-35" value="dolg" style="whiteSpace=wrap;html=1;" vertex="1" parent="1">
          <mxGeometry x="-849" y="280" width="120" height="60" as="geometry" />
        </mxCell>
        <mxCell id="IBGktmHR25dJkQ-fJBua-108" style="edgeStyle=orthogonalEdgeStyle;rounded=0;orthogonalLoop=1;jettySize=auto;html=1;entryX=0.5;entryY=0;entryDx=0;entryDy=0;strokeColor=#000000;dashed=1;dashPattern=1 1;" edge="1" parent="1" source="IBGktmHR25dJkQ-fJBua-37" target="IBGktmHR25dJkQ-fJBua-70">
          <mxGeometry relative="1" as="geometry">
            <Array as="points">
              <mxPoint x="-700" y="380" />
              <mxPoint x="-759" y="380" />
            </Array>
          </mxGeometry>
        </mxCell>
        <mxCell id="IBGktmHR25dJkQ-fJBua-110" style="edgeStyle=orthogonalEdgeStyle;rounded=0;orthogonalLoop=1;jettySize=auto;html=1;entryX=0.5;entryY=0;entryDx=0;entryDy=0;targetPerimeterSpacing=0;jumpSize=5;dashed=1;strokeColor=#4D8077;" edge="1" parent="1" source="IBGktmHR25dJkQ-fJBua-37" target="IBGktmHR25dJkQ-fJBua-76">
          <mxGeometry relative="1" as="geometry">
            <Array as="points">
              <mxPoint x="-600" y="410" />
              <mxPoint x="-505" y="410" />
            </Array>
          </mxGeometry>
        </mxCell>
        <mxCell id="IBGktmHR25dJkQ-fJBua-37" value="address" style="whiteSpace=wrap;html=1;strokeColor=#67AB9F;" vertex="1" parent="1">
          <mxGeometry x="-709" y="280" width="120" height="60" as="geometry" />
        </mxCell>
        <mxCell id="IBGktmHR25dJkQ-fJBua-38" style="edgeStyle=orthogonalEdgeStyle;orthogonalLoop=1;jettySize=auto;html=1;entryX=0.5;entryY=0;entryDx=0;entryDy=0;strokeColor=none;rounded=0;" edge="1" source="IBGktmHR25dJkQ-fJBua-39" target="IBGktmHR25dJkQ-fJBua-44" parent="1">
          <mxGeometry relative="1" as="geometry">
            <Array as="points">
              <mxPoint x="-499" y="360" />
              <mxPoint x="-519" y="360" />
            </Array>
          </mxGeometry>
        </mxCell>
        <mxCell id="IBGktmHR25dJkQ-fJBua-109" style="edgeStyle=orthogonalEdgeStyle;rounded=0;orthogonalLoop=1;jettySize=auto;html=1;entryX=0.5;entryY=0;entryDx=0;entryDy=0;strokeColor=#000000;dashed=1;dashPattern=1 1;" edge="1" parent="1" source="IBGktmHR25dJkQ-fJBua-39" target="IBGktmHR25dJkQ-fJBua-70">
          <mxGeometry relative="1" as="geometry">
            <Array as="points">
              <mxPoint x="-550" y="380" />
              <mxPoint x="-759" y="380" />
            </Array>
          </mxGeometry>
        </mxCell>
        <mxCell id="IBGktmHR25dJkQ-fJBua-111" style="edgeStyle=orthogonalEdgeStyle;rounded=0;orthogonalLoop=1;jettySize=auto;html=1;entryX=0.5;entryY=0;entryDx=0;entryDy=0;dashed=1;strokeColor=#4D8077;" edge="1" parent="1" source="IBGktmHR25dJkQ-fJBua-39" target="IBGktmHR25dJkQ-fJBua-76">
          <mxGeometry relative="1" as="geometry">
            <Array as="points">
              <mxPoint x="-505" y="390" />
              <mxPoint x="-505" y="390" />
            </Array>
          </mxGeometry>
        </mxCell>
        <mxCell id="IBGktmHR25dJkQ-fJBua-39" value="cross" style="whiteSpace=wrap;html=1;" vertex="1" parent="1">
          <mxGeometry x="-559" y="280" width="120" height="60" as="geometry" />
        </mxCell>
        <mxCell id="IBGktmHR25dJkQ-fJBua-40" value="&lt;h2&gt;&lt;font face=&quot;Comic Sans MS&quot;&gt;NEW FORMAT FILE WITH HISTORY&lt;/font&gt;&lt;/h2&gt;" style="text;html=1;strokeColor=none;fillColor=none;align=center;verticalAlign=middle;whiteSpace=wrap;" vertex="1" parent="1">
          <mxGeometry x="-499" y="180" width="120" height="90" as="geometry" />
        </mxCell>
        <mxCell id="IBGktmHR25dJkQ-fJBua-59" value="&lt;h1&gt;PYTHON&lt;/h1&gt;" style="text;html=1;strokeColor=none;fillColor=none;align=center;verticalAlign=middle;whiteSpace=wrap;rounded=0;" vertex="1" parent="1">
          <mxGeometry x="-300" y="740" width="120" height="40" as="geometry" />
        </mxCell>
        <mxCell id="IBGktmHR25dJkQ-fJBua-41" style="edgeStyle=orthogonalEdgeStyle;orthogonalLoop=1;jettySize=auto;html=1;entryX=0.5;entryY=0;entryDx=0;entryDy=0;" edge="1" source="IBGktmHR25dJkQ-fJBua-42" target="IBGktmHR25dJkQ-fJBua-54" parent="1">
          <mxGeometry relative="1" as="geometry">
            <mxPoint x="-669" y="858.0102040816328" as="targetPoint" />
            <Array as="points">
              <mxPoint x="-759" y="822.5" />
              <mxPoint x="-759" y="822.5" />
            </Array>
          </mxGeometry>
        </mxCell>
        <mxCell id="IBGktmHR25dJkQ-fJBua-42" value="maugli_dolg" style="whiteSpace=wrap;html=1;" vertex="1" parent="1">
          <mxGeometry x="-819" y="644.17" width="120" height="60" as="geometry" />
        </mxCell>
        <mxCell id="IBGktmHR25dJkQ-fJBua-49" style="edgeStyle=orthogonalEdgeStyle;orthogonalLoop=1;jettySize=auto;html=1;exitX=0.5;exitY=1;exitDx=0;exitDy=0;entryX=0.5;entryY=0;entryDx=0;entryDy=0;" edge="1" source="IBGktmHR25dJkQ-fJBua-54" target="IBGktmHR25dJkQ-fJBua-50" parent="1">
          <mxGeometry relative="1" as="geometry">
            <mxPoint x="-820.25" y="901.25" as="sourcePoint" />
            <Array as="points">
              <mxPoint x="-759" y="962.5" />
              <mxPoint x="-759" y="962.5" />
            </Array>
          </mxGeometry>
        </mxCell>
        <mxCell id="IBGktmHR25dJkQ-fJBua-50" value="dolg.json" style="whiteSpace=wrap;html=1;" vertex="1" parent="1">
          <mxGeometry x="-819" y="1075" width="120" height="60" as="geometry" />
        </mxCell>
        <mxCell id="IBGktmHR25dJkQ-fJBua-54" value="python script" style="rhombus;whiteSpace=wrap;html=1;" vertex="1" parent="1">
          <mxGeometry x="-849" y="842.5" width="180" height="76" as="geometry" />
        </mxCell>
        <mxCell id="IBGktmHR25dJkQ-fJBua-85" style="edgeStyle=orthogonalEdgeStyle;rounded=0;orthogonalLoop=1;jettySize=auto;html=1;entryX=0.5;entryY=0;entryDx=0;entryDy=0;" edge="1" parent="1" source="IBGktmHR25dJkQ-fJBua-70" target="IBGktmHR25dJkQ-fJBua-42">
          <mxGeometry relative="1" as="geometry" />
        </mxCell>
        <mxCell id="IBGktmHR25dJkQ-fJBua-57" value="&lt;h1&gt;VERTICA&lt;/h1&gt;" style="text;html=1;strokeColor=none;fillColor=none;align=center;verticalAlign=middle;whiteSpace=wrap;rounded=0;" vertex="1" parent="1">
          <mxGeometry x="-300" y="148.65274206672092" width="120" height="42.974597233523184" as="geometry" />
        </mxCell>
        <mxCell id="IBGktmHR25dJkQ-fJBua-113" style="edgeStyle=orthogonalEdgeStyle;rounded=0;orthogonalLoop=1;jettySize=auto;html=1;entryX=0.5;entryY=0;entryDx=0;entryDy=0;exitX=0.5;exitY=0;exitDx=0;exitDy=0;dashed=1;strokeColor=#4D8077;" edge="1" parent="1" source="IBGktmHR25dJkQ-fJBua-48" target="IBGktmHR25dJkQ-fJBua-112">
          <mxGeometry relative="1" as="geometry">
            <Array as="points">
              <mxPoint x="-285" y="410" />
              <mxPoint x="-505" y="410" />
            </Array>
          </mxGeometry>
        </mxCell>
        <mxCell id="IBGktmHR25dJkQ-fJBua-114" style="edgeStyle=orthogonalEdgeStyle;rounded=0;orthogonalLoop=1;jettySize=auto;html=1;entryX=0.5;entryY=0;entryDx=0;entryDy=0;dashed=1;dashPattern=1 1;" edge="1" parent="1" source="IBGktmHR25dJkQ-fJBua-48" target="IBGktmHR25dJkQ-fJBua-70">
          <mxGeometry relative="1" as="geometry">
            <Array as="points">
              <mxPoint x="-280" y="380" />
              <mxPoint x="-759" y="380" />
            </Array>
          </mxGeometry>
        </mxCell>
        <mxCell id="IBGktmHR25dJkQ-fJBua-48" value="&lt;h1&gt;virus&lt;/h1&gt;" style="whiteSpace=wrap;html=1;" vertex="1" parent="1">
          <mxGeometry x="-350" y="449.99860335997704" width="130" height="99.53447326855886" as="geometry" />
        </mxCell>
        <mxCell id="IBGktmHR25dJkQ-fJBua-105" style="edgeStyle=orthogonalEdgeStyle;rounded=0;orthogonalLoop=1;jettySize=auto;html=1;" edge="1" parent="1" source="IBGktmHR25dJkQ-fJBua-44" target="IBGktmHR25dJkQ-fJBua-53">
          <mxGeometry relative="1" as="geometry" />
        </mxCell>
        <mxCell id="IBGktmHR25dJkQ-fJBua-44" value="maugli_death" style="whiteSpace=wrap;html=1;" vertex="1" parent="1">
          <mxGeometry x="-565" y="642.219772172498" width="120" height="61.95280716029292" as="geometry" />
        </mxCell>
        <mxCell id="IBGktmHR25dJkQ-fJBua-51" value="death.json" style="whiteSpace=wrap;html=1;" vertex="1" parent="1">
          <mxGeometry x="-565" y="1074.7971928397071" width="120" height="61.95280716029292" as="geometry" />
        </mxCell>
        <mxCell id="IBGktmHR25dJkQ-fJBua-52" style="edgeStyle=orthogonalEdgeStyle;orthogonalLoop=1;jettySize=auto;html=1;entryX=0.5;entryY=0;entryDx=0;entryDy=0;" edge="1" source="IBGktmHR25dJkQ-fJBua-53" target="IBGktmHR25dJkQ-fJBua-51" parent="1">
          <mxGeometry x="-1840" y="325" as="geometry">
            <mxPoint x="-485" y="958.6356794141578" as="targetPoint" />
          </mxGeometry>
        </mxCell>
        <mxCell id="IBGktmHR25dJkQ-fJBua-53" value="python script" style="rhombus;whiteSpace=wrap;html=1;" vertex="1" parent="1">
          <mxGeometry x="-595" y="834.730065093572" width="180" height="78.47355573637104" as="geometry" />
        </mxCell>
        <mxCell id="IBGktmHR25dJkQ-fJBua-91" style="edgeStyle=orthogonalEdgeStyle;rounded=0;orthogonalLoop=1;jettySize=auto;html=1;" edge="1" parent="1" source="IBGktmHR25dJkQ-fJBua-76" target="IBGktmHR25dJkQ-fJBua-44">
          <mxGeometry x="-1840" y="325" as="geometry" />
        </mxCell>
        <mxCell id="IBGktmHR25dJkQ-fJBua-76" value="SQL" style="rhombus;whiteSpace=wrap;html=1;shadow=0;" vertex="1" parent="1">
          <mxGeometry x="-554" y="449.9985679414158" width="98" height="82.60374288039057" as="geometry" />
        </mxCell>
        <mxCell id="IBGktmHR25dJkQ-fJBua-70" value="SQL" style="rhombus;whiteSpace=wrap;html=1;shadow=0;" vertex="1" parent="1">
          <mxGeometry x="-808" y="450" width="98" height="80" as="geometry" />
        </mxCell>
        <mxCell id="IBGktmHR25dJkQ-fJBua-112" value="SQL" style="rhombus;whiteSpace=wrap;html=1;shadow=0;" vertex="1" parent="1">
          <mxGeometry x="-554" y="449.9985679414158" width="98" height="82.60374288039057" as="geometry" />
        </mxCell>
      </root>
    </mxGraphModel>
  </diagram>
</mxfile>
